<svg version="1.1" id="Layer_1" xmlns="http://www.w3.org/2000/svg" xmlns:xlink="http://www.w3.org/1999/xlink" x="0px" y="0px"
	 width="100%" viewBox="0 0 55 193" enable-background="new 0 0 55 193" xml:space="preserve">
<path fill="#FDFDFD" opacity="1.000000" stroke="none" 
	d="
M56.000000,190.702301 
	C56.378521,193.316528 55.900257,194.110199 53.328655,194.085938 
	C35.886967,193.921478 18.442986,194.000000 1.000000,194.000000 
	C1.000000,129.601379 1.000000,65.326012 1.000000,1.025320 
	C19.299908,1.025320 37.599857,1.025320 56.000000,1.025320 
	C56.000000,64.076340 56.000000,127.152725 56.000000,190.702301 
M35.728607,138.525848 
	C35.701317,138.105667 35.674026,137.685501 35.863163,136.548721 
	C35.847420,136.051865 35.831676,135.555008 36.042770,134.480881 
	C36.040440,133.657761 36.038113,132.834641 36.293625,131.238571 
	C36.213978,123.819305 36.134335,116.400047 36.140747,108.234550 
	C35.880444,106.797096 35.620136,105.359642 35.286812,103.025696 
	C34.920689,102.582397 34.554565,102.139099 34.915817,101.422241 
	C39.993282,96.156792 37.387924,90.250473 36.302315,84.324425 
	C37.858711,83.011574 39.472305,81.650475 41.736687,79.946678 
	C42.866135,76.830513 45.314095,73.529060 44.906540,70.628876 
	C42.621346,54.367191 39.647366,38.202293 37.015617,21.188522 
	C36.864128,20.047577 36.842739,18.870260 36.535931,17.772736 
	C35.726177,14.876086 35.765751,10.327382 31.852448,10.888506 
	C29.560894,11.217088 26.825523,14.877716 25.989758,17.567616 
	C24.348768,22.849112 23.895025,28.499491 22.651535,34.618603 
	C22.493567,35.743664 22.335596,36.868725 21.890579,38.772556 
	C21.232033,44.839260 20.573484,50.905960 19.603226,57.726871 
	C19.730175,64.153084 19.857124,70.579292 19.917761,77.796013 
	C20.198786,80.077293 20.479811,82.358574 20.791773,84.664986 
	C20.791773,84.664986 20.809740,84.698875 20.069611,84.855423 
	C17.739981,86.947571 16.932899,89.299744 18.949085,92.897003 
	C20.264072,93.324890 21.579060,93.752777 23.159452,94.771980 
	C23.262529,94.892609 23.399046,94.999046 23.458158,95.138336 
	C23.505833,95.250679 23.482037,95.515388 23.452650,95.521118 
	C19.071278,96.375061 22.844055,99.253311 21.951349,101.772453 
	C20.783400,104.566071 19.615448,107.359688 18.293512,110.309128 
	C18.293512,110.309128 18.146715,110.471741 17.590397,110.749786 
	C13.376315,114.393356 9.378354,118.171532 10.474198,124.531105 
	C11.709418,131.699539 13.012349,138.856308 14.182221,146.649246 
	C14.406924,147.451340 14.631627,148.253433 14.717484,149.714493 
	C14.832209,150.144119 14.946933,150.573761 14.965517,151.837326 
	C15.354803,154.557999 15.744089,157.278671 16.035334,160.851547 
	C17.258728,167.827332 18.482121,174.803131 19.942604,182.384842 
	C22.741451,185.095001 25.386772,184.052597 26.946487,181.322571 
	C28.712368,178.231659 30.165184,174.767044 30.834240,171.288010 
	C31.962442,165.421463 32.289677,159.405106 33.099689,153.471664 
	C33.670025,149.293915 34.482117,145.149155 35.496925,140.411911 
	C35.495686,139.981033 35.494450,139.550156 35.728607,138.525848 
z"/>
<path fill="#484848" opacity="1.000000" stroke="none" 
	d="
M22.177628,37.993786 
	C22.335596,36.868725 22.493567,35.743664 23.184582,34.298046 
	C24.941912,32.070091 26.609430,30.311867 27.310625,28.228422 
	C29.803684,20.820827 29.679020,20.778872 36.908539,22.004354 
	C39.647366,38.202293 42.621346,54.367191 44.906540,70.628876 
	C45.314095,73.529060 42.866135,76.830513 41.237049,79.828903 
	C37.825005,81.140549 34.912598,82.569962 31.683968,83.976364 
	C30.947306,83.927162 30.526869,83.900963 29.822809,83.604622 
	C27.695002,83.241211 25.850813,83.147942 23.867741,82.708099 
	C23.713451,81.414154 23.637558,80.463249 23.692841,79.520035 
	C23.971231,74.770317 24.486700,70.024757 24.537178,65.273682 
	C24.614027,58.040478 24.512861,50.797714 24.181276,43.573051 
	C24.094698,41.686619 22.876242,39.852131 22.177628,37.993786 
z"/>
<path fill="#3E3E3E" opacity="1.000000" stroke="none" 
	d="
M14.856329,149.055527 
	C14.631627,148.253433 14.406924,147.451340 14.580654,146.322205 
	C15.440361,145.226486 16.112816,144.509659 16.317118,143.677856 
	C16.694204,142.142578 16.476151,140.404785 17.072237,138.989914 
	C19.045813,134.305420 19.318419,130.071640 16.210091,125.531891 
	C14.035439,122.355797 12.525960,118.549728 16.766268,115.134407 
	C17.804634,114.298073 17.716785,112.063477 18.146717,110.471741 
	C18.146715,110.471741 18.293512,110.309128 18.698090,110.442696 
	C23.456537,108.858269 24.545483,105.123360 25.250154,100.825943 
	C25.801353,99.512726 26.117277,98.379295 26.636812,96.515366 
	C28.573872,98.887291 27.762051,103.487175 32.266872,100.839890 
	C32.803288,100.365654 33.118408,100.015663 33.433529,99.665672 
	C33.685162,100.342384 33.936798,101.019096 34.188438,101.695808 
	C34.554565,102.139099 34.920689,102.582397 34.930717,103.542847 
	C33.383213,108.706772 32.191795,113.353539 30.639984,118.060501 
	C26.541616,121.607895 26.839926,126.014099 27.301699,130.545700 
	C27.689159,134.348022 27.778378,138.180740 27.678123,141.826019 
	C26.466064,139.500244 25.575529,137.348450 24.266661,134.185837 
	C22.831413,136.174347 21.383320,137.303986 21.165369,138.635056 
	C20.243795,144.263321 19.851538,149.979324 18.894161,155.599976 
	C18.625471,157.177414 17.088558,158.538834 16.133375,159.999344 
	C15.744089,157.278671 15.354803,154.557999 15.312511,151.373657 
	C15.937595,150.479233 16.215685,150.048508 16.493774,149.617767 
	C15.947960,149.430359 15.402144,149.242935 14.856329,149.055527 
z"/>
<path fill="#3D3D3D" opacity="1.000000" stroke="none" 
	d="
M16.084354,160.425446 
	C17.088558,158.538834 18.625471,157.177414 18.894161,155.599976 
	C19.851538,149.979324 20.243795,144.263321 21.165369,138.635056 
	C21.383320,137.303986 22.831413,136.174347 24.266661,134.185837 
	C25.575529,137.348450 26.466064,139.500244 27.683495,142.198944 
	C28.672569,145.163910 29.334753,147.581940 29.997450,150.426086 
	C29.333277,154.122192 28.318008,157.366241 28.073643,160.667343 
	C27.484184,168.630234 27.578485,176.746872 19.705515,181.778915 
	C18.482121,174.803131 17.258728,167.827332 16.084354,160.425446 
z"/>
<path fill="#4C4C4C" opacity="1.000000" stroke="none" 
	d="
M19.824059,182.081879 
	C27.578485,176.746872 27.484184,168.630234 28.073643,160.667343 
	C28.318008,157.366241 29.333277,154.122192 30.292265,150.135986 
	C30.725630,146.526306 30.682114,143.607086 31.085140,140.750870 
	C31.270889,139.434464 32.330311,138.241318 32.997902,137.379166 
	C33.730228,138.840576 34.458248,139.915131 35.186264,140.989670 
	C34.482117,145.149155 33.670025,149.293915 33.099689,153.471664 
	C32.289677,159.405106 31.962442,165.421463 30.834240,171.288010 
	C30.165184,174.767044 28.712368,178.231659 26.946487,181.322571 
	C25.386772,184.052597 22.741451,185.095001 19.824059,182.081879 
z"/>
<path fill="#474747" opacity="1.000000" stroke="none" 
	d="
M17.868557,110.610764 
	C17.716785,112.063477 17.804634,114.298073 16.766268,115.134407 
	C12.525960,118.549728 14.035439,122.355797 16.210091,125.531891 
	C19.318419,130.071640 19.045813,134.305420 17.072237,138.989914 
	C16.476151,140.404785 16.694204,142.142578 16.317118,143.677856 
	C16.112816,144.509659 15.440361,145.226486 14.632458,146.006653 
	C13.012349,138.856308 11.709418,131.699539 10.474198,124.531105 
	C9.378354,118.171532 13.376315,114.393356 17.868557,110.610764 
z"/>
<path fill="#4E4E4E" opacity="1.000000" stroke="none" 
	d="
M36.962078,21.596439 
	C29.679020,20.778872 29.803684,20.820827 27.310625,28.228422 
	C26.609430,30.311867 24.941912,32.070091 23.333824,33.987362 
	C23.895025,28.499491 24.348768,22.849112 25.989758,17.567616 
	C26.825523,14.877716 29.560894,11.217088 31.852448,10.888506 
	C35.765751,10.327382 35.726177,14.876086 36.535931,17.772736 
	C36.842739,18.870260 36.864128,20.047577 36.962078,21.596439 
z"/>
<path fill="#4E4E4E" opacity="1.000000" stroke="none" 
	d="
M22.034103,38.383171 
	C22.876242,39.852131 24.094698,41.686619 24.181276,43.573051 
	C24.512861,50.797714 24.614027,58.040478 24.537178,65.273682 
	C24.486700,70.024757 23.971231,74.770317 23.692841,79.520035 
	C23.637558,80.463249 23.713451,81.414154 23.703514,82.997681 
	C22.705730,83.969185 21.733282,84.304520 20.760834,84.639854 
	C20.479811,82.358574 20.198786,80.077293 20.237511,77.098450 
	C20.343153,69.924820 20.129045,63.448742 19.914936,56.972664 
	C20.573484,50.905960 21.232033,44.839260 22.034103,38.383171 
z"/>
<path fill="#414141" opacity="1.000000" stroke="none" 
	d="
M32.993591,136.992294 
	C32.330311,138.241318 31.270889,139.434464 31.085140,140.750870 
	C30.682114,143.607086 30.725630,146.526306 30.291752,149.709869 
	C29.334753,147.581940 28.672569,145.163910 28.005014,142.372925 
	C27.778378,138.180740 27.689159,134.348022 27.301699,130.545700 
	C26.839926,126.014099 26.541616,121.607895 30.641769,118.491653 
	C31.669945,123.241737 32.335938,127.620872 33.016060,132.413452 
	C33.958767,133.570648 34.887348,134.314392 35.815933,135.058151 
	C35.831676,135.555008 35.847420,136.051865 35.347649,136.816925 
	C34.555931,137.055237 34.279728,137.025360 33.751053,136.991364 
	C33.330250,136.988922 33.161922,136.990601 32.993591,136.992294 
z"/>
<path fill="#666666" opacity="1.000000" stroke="none" 
	d="
M34.552124,101.559021 
	C33.936798,101.019096 33.685162,100.342384 33.433529,99.665672 
	C33.118408,100.015663 32.803288,100.365654 32.250786,100.434753 
	C31.686308,97.769302 31.359213,95.384743 31.180807,92.676605 
	C31.875080,90.288651 32.420666,88.224274 32.879051,85.906143 
	C32.511265,85.444366 32.230675,85.236351 31.955299,85.044662 
	C31.960516,85.060982 31.925608,85.081955 31.948074,84.811569 
	C31.980427,84.360588 31.990311,84.179985 32.000191,83.999374 
	C34.912598,82.569962 37.825005,81.140549 40.911652,80.000252 
	C39.472305,81.650475 37.858711,83.011574 36.302315,84.324425 
	C37.387924,90.250473 39.993282,96.156792 34.552124,101.559021 
M33.499168,96.392532 
	C33.499168,96.392532 33.392769,96.555931 33.392769,96.555931 
	C33.392769,96.555931 33.605339,96.540970 33.499168,96.392532 
z"/>
<path fill="#4C4C4C" opacity="1.000000" stroke="none" 
	d="
M33.001930,132.000000 
	C32.335938,127.620872 31.669945,123.241737 31.002167,118.431458 
	C32.191795,113.353539 33.383213,108.706772 34.967232,103.991096 
	C35.620136,105.359642 35.880444,106.797096 35.825829,108.847122 
	C35.341366,110.652252 35.171822,111.844818 34.834557,113.114075 
	C34.779331,113.449402 34.891827,113.708031 35.010490,114.436646 
	C35.028801,120.598831 35.040943,126.291039 34.710938,131.988739 
	C33.913166,131.996155 33.457550,131.998077 33.001930,132.000000 
z"/>
<path fill="#464646" opacity="1.000000" stroke="none" 
	d="
M31.032120,93.000175 
	C31.359213,95.384743 31.686308,97.769302 32.029488,100.558998 
	C27.762051,103.487175 28.573872,98.887291 26.636812,96.515366 
	C26.117277,98.379295 25.801353,99.512726 24.884068,100.823441 
	C23.551371,101.000122 22.820040,100.999519 22.088707,100.998924 
	C22.844055,99.253311 19.071278,96.375061 23.452650,95.521118 
	C23.482037,95.515388 23.505833,95.250679 23.458158,95.138336 
	C23.399046,94.999046 23.262529,94.892609 23.080004,94.112473 
	C23.028864,92.963577 23.057175,92.474182 23.448864,91.998558 
	C26.218868,92.341614 28.625494,92.670898 31.032120,93.000175 
z"/>
<path fill="#595959" opacity="1.000000" stroke="none" 
	d="
M35.053085,131.983246 
	C35.040943,126.291039 35.028801,120.598831 35.012032,114.204529 
	C35.007408,113.502434 35.002274,113.037384 35.002274,113.037384 
	C35.171822,111.844818 35.341366,110.652252 35.782799,109.220230 
	C36.134335,116.400047 36.213978,123.819305 35.919075,131.616302 
	C35.544529,131.994034 35.053085,131.983246 35.053085,131.983246 
z"/>
<path fill="#5B5B5B" opacity="1.000000" stroke="none" 
	d="
M19.759083,57.349770 
	C20.129045,63.448742 20.343153,69.924820 20.270668,76.703201 
	C19.857124,70.579292 19.730175,64.153084 19.759083,57.349770 
z"/>
<path fill="#6C6C6C" opacity="1.000000" stroke="none" 
	d="
M23.085484,91.984787 
	C23.057175,92.474182 23.028864,92.963577 22.947300,93.816818 
	C21.579060,93.752777 20.264072,93.324890 19.205437,92.279800 
	C19.911104,89.341362 20.360422,87.020119 20.809740,84.698875 
	C20.809740,84.698875 20.791773,84.664986 20.776302,84.652420 
	C21.733282,84.304520 22.705730,83.969185 23.842402,83.344261 
	C25.850813,83.147942 27.695002,83.241211 29.774075,83.665085 
	C30.008961,83.995682 29.916845,84.114960 29.545818,84.091370 
	C23.897882,85.137352 21.960484,87.656250 23.085484,91.984787 
z"/>
<path fill="#474747" opacity="1.000000" stroke="none" 
	d="
M22.020027,101.385689 
	C22.820040,100.999519 23.551371,101.000122 24.648792,101.003220 
	C24.545483,105.123360 23.456537,108.858269 18.775082,110.364784 
	C19.615448,107.359688 20.783400,104.566071 22.020027,101.385689 
z"/>
<path fill="#4E4E4E" opacity="1.000000" stroke="none" 
	d="
M20.439674,84.777145 
	C20.360422,87.020119 19.911104,89.341362 19.145908,91.888168 
	C16.932899,89.299744 17.739981,86.947571 20.439674,84.777145 
z"/>
<path fill="#535353" opacity="1.000000" stroke="none" 
	d="
M34.710938,131.988739 
	C35.053085,131.983246 35.544529,131.994034 35.790157,132.002777 
	C36.038113,132.834641 36.040440,133.657761 35.929352,134.769516 
	C34.887348,134.314392 33.958767,133.570648 33.016056,132.413452 
	C33.457550,131.998077 33.913166,131.996155 34.710938,131.988739 
z"/>
<path fill="#535353" opacity="1.000000" stroke="none" 
	d="
M32.997902,137.379166 
	C33.161922,136.990601 33.330250,136.988922 33.791992,137.341064 
	C34.554672,138.169678 35.023941,138.644485 35.493210,139.119278 
	C35.494450,139.550156 35.495686,139.981033 35.341599,140.700790 
	C34.458248,139.915131 33.730228,138.840576 32.997902,137.379166 
z"/>
<path fill="#474747" opacity="1.000000" stroke="none" 
	d="
M14.786907,149.385010 
	C15.402144,149.242935 15.947960,149.430359 16.493774,149.617767 
	C16.215685,150.048508 15.937595,150.479233 15.360582,150.956680 
	C14.946933,150.573761 14.832209,150.144119 14.786907,149.385010 
z"/>
<path fill="#4C4C4C" opacity="1.000000" stroke="none" 
	d="
M35.610909,138.822571 
	C35.023941,138.644485 34.554672,138.169678 34.044464,137.345184 
	C34.279728,137.025360 34.555931,137.055237 35.239433,137.175232 
	C35.674026,137.685501 35.701317,138.105667 35.610909,138.822571 
z"/>
<path fill="#6C6C6C" opacity="1.000000" stroke="none" 
	d="
M31.683969,83.976372 
	C31.990311,84.179985 31.980427,84.360588 31.657562,84.781784 
	C30.868670,84.719910 30.392756,84.417435 29.916843,84.114960 
	C29.916845,84.114960 30.008961,83.995682 30.057695,83.935226 
	C30.526869,83.900963 30.947306,83.927162 31.683969,83.976372 
z"/>
<path fill="#404040" opacity="1.000000" stroke="none" 
	d="
M29.545818,84.091370 
	C30.392756,84.417435 30.868670,84.719910 31.635094,85.052170 
	C31.925608,85.081955 31.960516,85.060982 32.057274,85.285568 
	C32.424770,85.726738 32.695511,85.943314 32.966255,86.159897 
	C32.420666,88.224274 31.875080,90.288651 31.180807,92.676605 
	C28.625494,92.670898 26.218868,92.341614 23.448864,91.998558 
	C21.960484,87.656250 23.897882,85.137352 29.545818,84.091370 
z"/>
<path fill="#3E3E3E" opacity="1.000000" stroke="none" 
	d="
M33.552254,96.466751 
	C33.605339,96.540970 33.392769,96.555931 33.392769,96.555931 
	C33.392769,96.555931 33.499168,96.392532 33.552254,96.466751 
z"/>
<path fill="#6C6C6C" opacity="1.000000" stroke="none" 
	d="
M32.879055,85.906143 
	C32.695511,85.943314 32.424770,85.726738 32.052055,85.269249 
	C32.230675,85.236351 32.511265,85.444366 32.879055,85.906143 
z"/>
<path fill="#535353" opacity="1.000000" stroke="none" 
	d="
M34.834557,113.114075 
	C35.002274,113.037384 35.007408,113.502434 35.005867,113.734550 
	C34.891827,113.708031 34.779331,113.449402 34.834557,113.114075 
z"/>
</svg>