<svg version="1.1" id="Layer_1" xmlns="http://www.w3.org/2000/svg" xmlns:xlink="http://www.w3.org/1999/xlink" x="0px" y="0px"
	 width="100%" viewBox="0 0 168 393" enable-background="new 0 0 168 393" xml:space="preserve">
<path fill="#FEFEFE" opacity="1.000000" stroke="none" 
	d="
M76.000000,394.000000 
	C50.666668,394.000000 25.833334,394.000000 1.000000,394.000000 
	C1.000000,263.000000 1.000000,132.000000 1.000000,1.000000 
	C57.000000,1.000000 113.000000,1.000000 169.000000,1.000000 
	C169.000000,132.000000 169.000000,263.000000 169.000000,394.000000 
	C138.166672,394.000000 107.333336,394.000000 76.000000,394.000000 
M82.902077,214.089294 
	C82.902077,214.089294 82.810349,214.121872 82.998367,215.027023 
	C82.998367,266.039764 82.998367,317.052490 82.998367,367.975800 
	C102.075546,371.645386 105.551720,369.431183 107.880241,352.503265 
	C107.902321,352.342712 107.855469,352.172638 108.143196,351.258301 
	C108.180351,351.095886 108.230263,350.935181 108.252869,350.770782 
	C114.013832,308.873108 119.799706,266.978790 125.406921,225.060547 
	C125.581131,223.758255 124.239304,221.773148 123.034752,220.847382 
	C116.997360,216.207306 110.770058,211.814316 104.676140,207.382950 
	C110.412857,194.316864 108.120804,183.815048 97.985558,178.507584 
	C94.675018,176.773972 94.128685,174.831604 94.132759,171.577072 
	C94.193886,122.748871 94.145248,73.920540 94.122559,25.092236 
	C94.121811,23.484190 94.122467,21.876144 94.122467,19.897499 
	C88.487587,19.897499 83.344421,20.100664 78.225693,19.834290 
	C74.003899,19.614590 71.871613,20.982933 71.258247,25.425714 
	C64.905655,71.439392 58.443077,117.437973 51.915359,163.427170 
	C51.503063,166.331909 52.406887,167.977005 54.725258,169.596375 
	C60.948654,173.943420 66.997223,178.540756 73.062279,182.999756 
	C65.491180,195.194733 68.549042,207.546310 80.449303,213.452805 
	C81.260422,213.696762 82.071541,213.940720 82.902077,214.089294 
z"/>
<path fill="#231A17" opacity="1.000000" stroke="none" 
	d="
M80.000648,212.993896 
	C68.549042,207.546310 65.491180,195.194733 73.062279,182.999756 
	C66.997223,178.540756 60.948654,173.943420 54.725258,169.596375 
	C52.406887,167.977005 51.503063,166.331909 51.915359,163.427170 
	C58.443077,117.437973 64.905655,71.439392 71.258247,25.425714 
	C71.871613,20.982933 74.003899,19.614590 78.225693,19.834290 
	C83.344421,20.100664 88.487587,19.897499 94.122467,19.897499 
	C94.122467,21.876144 94.121811,23.484190 94.122559,25.092236 
	C94.145248,73.920540 94.193886,122.748871 94.132759,171.577072 
	C94.128685,174.831604 94.675018,176.773972 97.985558,178.507584 
	C108.120804,183.815048 110.412857,194.316864 104.676140,207.382950 
	C110.770058,211.814316 116.997360,216.207306 123.034752,220.847382 
	C124.239304,221.773148 125.581131,223.758255 125.406921,225.060547 
	C119.799706,266.978790 114.013832,308.873108 108.252869,350.770782 
	C108.230263,350.935181 108.180351,351.095886 107.630920,351.722046 
	C106.410919,354.649323 105.517937,357.076935 105.031250,359.583435 
	C103.729324,366.288635 103.002106,366.995819 96.467186,366.996826 
	C93.971031,366.997192 91.463722,366.844177 88.981560,367.029572 
	C85.932648,367.257263 84.865509,366.061279 84.952202,363.015442 
	C85.127327,356.863251 85.003433,350.702545 85.003403,344.545349 
	C85.003235,302.776276 85.029091,261.007141 84.910423,219.238388 
	C84.905579,217.530914 83.541283,215.827286 82.810349,214.121872 
	C82.810349,214.121872 82.902077,214.089294 82.890503,213.799225 
	C81.919502,213.337418 80.960075,213.165665 80.000648,212.993896 
M96.004433,201.375122 
	C98.897903,197.137375 98.897903,192.919769 95.451279,189.080063 
	C92.496895,185.788742 88.691246,184.904938 84.591209,186.717453 
	C80.296432,188.616028 77.907082,192.280975 79.099747,196.711685 
	C79.860840,199.539169 82.222832,202.555603 84.720642,204.150391 
	C88.463493,206.540100 92.378075,205.062881 96.004433,201.375122 
z"/>
<path fill="#191512" opacity="1.000000" stroke="none" 
	d="
M82.904358,214.574448 
	C83.541283,215.827286 84.905579,217.530914 84.910423,219.238388 
	C85.029091,261.007141 85.003235,302.776276 85.003403,344.545349 
	C85.003433,350.702545 85.127327,356.863251 84.952202,363.015442 
	C84.865509,366.061279 85.932648,367.257263 88.981560,367.029572 
	C91.463722,366.844177 93.971031,366.997192 96.467186,366.996826 
	C103.002106,366.995819 103.729324,366.288635 105.031250,359.583435 
	C105.517937,357.076935 106.410919,354.649323 107.479721,352.096375 
	C107.855469,352.172638 107.902321,352.342712 107.880241,352.503265 
	C105.551720,369.431183 102.075546,371.645386 82.998367,367.975800 
	C82.998367,317.052490 82.998367,266.039764 82.904358,214.574448 
z"/>
<path fill="#191512" opacity="1.000000" stroke="none" 
	d="
M80.224976,213.223358 
	C80.960075,213.165665 81.919502,213.337418 82.880798,213.846924 
	C82.071541,213.940720 81.260422,213.696762 80.224976,213.223358 
z"/>
<path fill="#F8F8F6" opacity="1.000000" stroke="none" 
	d="
M95.763275,201.678680 
	C92.378075,205.062881 88.463493,206.540100 84.720642,204.150391 
	C82.222832,202.555603 79.860840,199.539169 79.099747,196.711685 
	C77.907082,192.280975 80.296432,188.616028 84.591209,186.717453 
	C88.691246,184.904938 92.496895,185.788742 95.451279,189.080063 
	C98.897903,192.919769 98.897903,197.137375 95.763275,201.678680 
z"/>
</svg>